<svg preserveAspectRatio="none" overflow="visible" style="display: block;" width="22.4173" height="22.4173" viewBox="0 0 22.4173 22.4173" fill="none" xmlns="http://www.w3.org/2000/svg">
<g id="Icons">
<g id="Union">
<path d="M11.2081 0.659313C17.0342 0.659435 21.7577 5.38208 21.7579 11.2081C21.7578 17.0343 17.0343 21.7578 11.2081 21.7579C5.38208 21.7577 0.659435 17.0342 0.659313 11.2081C0.659529 5.38213 5.38213 0.659529 11.2081 0.659313ZM10.3236 4.00918C10.2792 3.64809 9.94983 3.38838 9.5936 3.46225C6.53739 4.09597 4.1276 6.49193 3.47354 9.54065C3.39722 9.89636 3.65466 10.2275 4.01544 10.2744L8.63265 10.8739C8.79138 10.8946 8.90143 11.0402 8.9009 11.2003C8.90037 11.3603 8.78931 11.5052 8.63043 11.5247L4.0102 12.0918C3.64909 12.1361 3.38933 12.4655 3.46316 12.8217C4.09653 15.8782 6.49186 18.2876 9.54065 18.9417C9.89636 19.0181 10.2275 18.7606 10.2744 18.3999L10.8739 13.7846C10.8946 13.6259 11.0402 13.5158 11.2003 13.5164C11.3603 13.5169 11.5052 13.6279 11.5247 13.7868L12.0918 18.4061C12.1361 18.7672 12.4655 19.0269 12.8217 18.9531C15.8781 18.3197 18.2875 15.9245 18.9417 12.8757C19.0181 12.52 18.7606 12.1888 18.3997 12.142L13.7851 11.5433C13.6261 11.5227 13.5158 11.3768 13.5164 11.2165C13.5169 11.0561 13.6281 10.911 13.7873 10.8915L18.4061 10.3236C18.7672 10.2793 19.0269 9.94983 18.953 9.59361C18.3193 6.53765 15.9242 4.1286 12.8757 3.47454C12.52 3.39822 12.1888 3.65571 12.142 4.01654L11.5433 8.63211C11.5227 8.79113 11.3768 8.90141 11.2165 8.90088C11.0561 8.90035 10.911 8.78912 10.8915 8.63L10.3236 4.00918Z" fill="#B03E40"/>
<path d="M11.2081 0.659313L11.2082 0H11.2081L11.2081 0.659313ZM21.7579 11.2081L22.4173 11.2082V11.2081L21.7579 11.2081ZM11.2081 21.7579L11.2081 22.4173H11.2082L11.2081 21.7579ZM0.659313 11.2081L0 11.2081V11.2082L0.659313 11.2081ZM10.8915 8.63L10.2371 8.71042L10.8915 8.63ZM11.5433 8.63211L12.1972 8.71692L11.5433 8.63211ZM12.8757 3.47454L12.7374 4.11919L12.8757 3.47454ZM12.142 4.01654L11.4881 3.93174L12.142 4.01654ZM18.4061 10.3236L18.3257 9.66926L18.4061 10.3236ZM18.953 9.59361L18.3075 9.72748L18.953 9.59361ZM13.5164 11.2165L14.1757 11.2186L13.5164 11.2165ZM13.7873 10.8915L13.7068 10.2371L13.7873 10.8915ZM13.7851 11.5433L13.7003 12.1972L13.7851 11.5433ZM18.9417 12.8757L18.2971 12.7374L18.9417 12.8757ZM18.3997 12.142L18.3149 12.7958L18.3997 12.142ZM12.0918 18.4061L12.7462 18.3258L12.0918 18.4061ZM12.8217 18.9531L12.688 18.3075L12.8217 18.9531ZM11.2003 13.5164L11.1981 14.1757L11.2003 13.5164ZM11.5247 13.7868L10.8703 13.8672L11.5247 13.7868ZM10.8739 13.7846L11.5278 13.8695L10.8739 13.7846ZM9.54065 18.9417L9.67897 18.2971L9.54065 18.9417ZM10.2744 18.3999L10.9282 18.4848L10.2744 18.3999ZM4.0102 12.0918L3.92988 11.4374L4.0102 12.0918ZM8.9009 11.2003L8.24159 11.1981L8.9009 11.2003ZM8.63043 11.5247L8.55011 10.8703L8.63043 11.5247ZM8.63265 10.8739L8.71755 10.2201L8.63265 10.8739ZM4.01544 10.2744L3.93054 10.9282L4.01544 10.2744ZM11.2081 0.659313L11.2081 1.31863C16.6702 1.31874 21.0984 5.74628 21.0986 11.2082L21.7579 11.2081L22.4173 11.2081C22.417 5.01787 17.3983 0.000129819 11.2082 0L11.2081 0.659313ZM21.7579 11.2081L21.0986 11.2081C21.0985 16.6702 16.6702 21.0985 11.2081 21.0986L11.2081 21.7579L11.2082 22.4173C17.3984 22.4171 22.4171 17.3984 22.4173 11.2082L21.7579 11.2081ZM11.2081 21.7579L11.2082 21.0986C5.74628 21.0984 1.31874 16.6702 1.31863 11.2081L0.659313 11.2081L0 11.2082C0.000129819 17.3983 5.01787 22.417 11.2081 22.4173L11.2081 21.7579ZM0.659313 11.2081L1.31863 11.2082C1.31883 5.74627 5.74627 1.31883 11.2082 1.31863L11.2081 0.659313L11.2081 0C5.018 0.000228882 0.000228882 5.018 0 11.2081L0.659313 11.2081ZM9.5936 3.46225L9.45974 2.81667C6.14765 3.50344 3.5377 6.09848 2.82889 9.40235L3.47354 9.54065L4.11818 9.67895C4.71751 6.88537 6.92713 4.68849 9.72747 4.10783L9.5936 3.46225ZM4.01544 10.2744L3.93054 10.9282L8.54775 11.5278L8.63265 10.8739L8.71755 10.2201L4.10034 9.62056L4.01544 10.2744ZM8.63043 11.5247L8.55011 10.8703L3.92988 11.4374L4.0102 12.0918L4.09052 12.7462L8.71075 12.1791L8.63043 11.5247ZM3.46316 12.8217L2.81756 12.9555C3.50397 16.2679 6.09839 18.8775 9.40234 19.5864L9.54065 18.9417L9.67897 18.2971C6.88534 17.6977 4.6891 15.4885 4.10875 12.688L3.46316 12.8217ZM10.2744 18.3999L10.9282 18.4848L11.5278 13.8695L10.8739 13.7846L10.2201 13.6997L9.62059 18.3149L10.2744 18.3999ZM11.5247 13.7868L10.8703 13.8672L11.4374 18.4864L12.0918 18.4061L12.7462 18.3258L12.1791 13.7065L11.5247 13.7868ZM12.8217 18.9531L12.9555 19.5987C16.2678 18.9122 18.8774 16.318 19.5864 13.0141L18.9417 12.8757L18.2971 12.7374C17.6976 15.531 15.4885 17.7271 12.688 18.3075L12.8217 18.9531ZM18.3997 12.142L18.4846 11.4881L13.87 10.8895L13.7851 11.5433L13.7003 12.1972L18.3149 12.7958L18.3997 12.142ZM13.7873 10.8915L13.8677 11.5459L18.4866 10.978L18.4061 10.3236L18.3257 9.66926L13.7068 10.2371L13.7873 10.8915ZM18.953 9.59361L19.5986 9.45973C18.9118 6.14792 16.3177 3.5387 13.0141 2.8299L12.8757 3.47454L12.7374 4.11919C15.5308 4.7185 17.7268 6.92738 18.3075 9.72748L18.953 9.59361ZM12.142 4.01654L11.4881 3.93174L10.8895 8.54731L11.5433 8.63211L12.1972 8.71692L12.7958 4.10134L12.142 4.01654ZM10.8915 8.63L11.5459 8.54958L10.978 3.92876L10.3236 4.00918L9.66923 4.0896L10.2371 8.71042L10.8915 8.63ZM11.2165 8.90088L11.2186 8.24157C11.3385 8.24197 11.5189 8.32979 11.5459 8.54958L10.8915 8.63L10.2371 8.71042C10.3032 9.24845 10.7738 9.55874 11.2143 9.56019L11.2165 8.90088ZM11.5433 8.63211L10.8895 8.54731C10.918 8.32768 11.099 8.24118 11.2186 8.24157L11.2165 8.90088L11.2143 9.56019C11.6547 9.56164 12.1274 9.25459 12.1972 8.71692L11.5433 8.63211ZM12.8757 3.47454L13.0141 2.8299C12.2454 2.66498 11.5797 3.22605 11.4881 3.93174L12.142 4.01654L12.7958 4.10134C12.7961 4.09928 12.7961 4.10341 12.7888 4.10888C12.7848 4.11188 12.7777 4.11596 12.7671 4.11843C12.7556 4.12109 12.7448 4.12076 12.7374 4.11919L12.8757 3.47454ZM18.4061 10.3236L18.4866 10.978C19.1928 10.8912 19.7582 10.2294 19.5986 9.45973L18.953 9.59361L18.3075 9.72748C18.3059 9.72013 18.3057 9.70926 18.3084 9.69786C18.311 9.68728 18.3151 9.68016 18.3181 9.67618C18.3236 9.66895 18.3277 9.669 18.3257 9.66926L18.4061 10.3236ZM13.5164 11.2165L14.1757 11.2186C14.1753 11.3384 14.0875 11.5188 13.8677 11.5459L13.7873 10.8915L13.7068 10.2371C13.1688 10.3032 12.8585 10.7738 12.8571 11.2143L13.5164 11.2165ZM13.7851 11.5433L13.87 10.8895C14.0896 10.918 14.1761 11.099 14.1757 11.2186L13.5164 11.2165L12.8571 11.2143C12.8556 11.6546 13.1627 12.1274 13.7003 12.1972L13.7851 11.5433ZM18.9417 12.8757L19.5864 13.0141C19.7513 12.2454 19.1902 11.5797 18.4846 11.4881L18.3997 12.142L18.3149 12.7958C18.317 12.7961 18.3129 12.7961 18.3074 12.7888C18.3044 12.7848 18.3003 12.7777 18.2978 12.7671C18.2952 12.7556 18.2955 12.7448 18.2971 12.7374L18.9417 12.8757ZM12.0918 18.4061L11.4374 18.4864C11.5241 19.1927 12.1858 19.7582 12.9555 19.5987L12.8217 18.9531L12.688 18.3075C12.6953 18.306 12.7062 18.3057 12.7176 18.3085C12.7282 18.311 12.7353 18.3151 12.7392 18.3182C12.7465 18.3237 12.7464 18.3278 12.7462 18.3258L12.0918 18.4061ZM11.2003 13.5164L11.1981 14.1757C11.078 14.1753 10.8973 14.0872 10.8703 13.8672L11.5247 13.7868L12.1791 13.7065C12.1131 13.1687 11.6427 12.8585 11.2025 12.857L11.2003 13.5164ZM10.8739 13.7846L11.5278 13.8695C11.4992 14.0894 11.318 14.1761 11.1981 14.1757L11.2003 13.5164L11.2025 12.857C10.7624 12.8556 10.2899 13.1623 10.2201 13.6997L10.8739 13.7846ZM9.54065 18.9417L9.40234 19.5864C10.1709 19.7513 10.8366 19.1904 10.9282 18.4848L10.2744 18.3999L9.62059 18.3149C9.62032 18.317 9.62029 18.3129 9.62757 18.3074C9.63157 18.3044 9.63872 18.3003 9.64933 18.2979C9.66075 18.2952 9.67162 18.2955 9.67897 18.2971L9.54065 18.9417ZM4.0102 12.0918L3.92988 11.4374C3.22362 11.5241 2.65806 12.1858 2.81756 12.9555L3.46316 12.8217L4.10875 12.688C4.11028 12.6953 4.11053 12.7062 4.10779 12.7176C4.10525 12.7282 4.10112 12.7353 4.09809 12.7393C4.09258 12.7465 4.08845 12.7464 4.09052 12.7462L4.0102 12.0918ZM8.9009 11.2003L8.24159 11.1981C8.24199 11.078 8.32999 10.8973 8.55011 10.8703L8.63043 11.5247L8.71075 12.1791C9.24862 12.1131 9.55874 11.6426 9.56021 11.2025L8.9009 11.2003ZM8.63265 10.8739L8.54775 11.5278C8.32784 11.4992 8.24119 11.318 8.24159 11.1981L8.9009 11.2003L9.56021 11.2025C9.56167 10.7624 9.25492 10.2899 8.71755 10.2201L8.63265 10.8739ZM3.47354 9.54065L2.82889 9.40235C2.664 10.1709 3.22495 10.8366 3.93054 10.9282L4.01544 10.2744L4.10034 9.62056C4.09828 9.62029 4.10241 9.62026 4.10787 9.62754C4.11088 9.63154 4.11496 9.6387 4.11743 9.6493C4.12009 9.66073 4.11976 9.6716 4.11818 9.67895L3.47354 9.54065ZM9.5936 3.46225L9.72747 4.10783C9.72011 4.10935 9.70924 4.10961 9.69784 4.10687C9.68725 4.10433 9.68013 4.1002 9.67615 4.09717C9.66892 4.09166 9.66897 4.08753 9.66923 4.0896L10.3236 4.00918L10.978 3.92876C10.8912 3.22255 10.2294 2.65707 9.45974 2.81667L9.5936 3.46225Z" fill="#E0DDD5" style="mix-blend-mode:soft-light"/>
</g>
</g>
</svg>
